<svg width="1600" height="500" viewBox="0 0 1600 500" fill="none" xmlns="http://www.w3.org/2000/svg">
  <defs>
    <linearGradient id="bg" x1="0" y1="0" x2="1600" y2="500" gradientUnits="userSpaceOnUse">
      <stop stop-color="#0A0F18"/>
      <stop offset="0.5" stop-color="#101826"/>
      <stop offset="1" stop-color="#0B1220"/>
    </linearGradient>

    <radialGradient id="glowLeft" cx="0" cy="0" r="1" gradientUnits="userSpaceOnUse" gradientTransform="translate(420 250) rotate(90) scale(260 420)">
      <stop stop-color="#E5EDF8" stop-opacity="0.22"/>
      <stop offset="1" stop-color="#E5EDF8" stop-opacity="0"/>
    </radialGradient>

    <radialGradient id="glowRight" cx="0" cy="0" r="1" gradientUnits="userSpaceOnUse" gradientTransform="translate(1200 250) rotate(90) scale(240 380)">
      <stop stop-color="#94A3B8" stop-opacity="0.16"/>
      <stop offset="1" stop-color="#94A3B8" stop-opacity="0"/>
    </radialGradient>

    <linearGradient id="panelStroke" x1="180" y1="60" x2="1420" y2="440" gradientUnits="userSpaceOnUse">
      <stop stop-color="#FFFFFF" stop-opacity="0.18"/>
      <stop offset="1" stop-color="#FFFFFF" stop-opacity="0.04"/>
    </linearGradient>

    <linearGradient id="logoOuter" x1="0" y1="0" x2="120" y2="120" gradientUnits="userSpaceOnUse">
      <stop stop-color="#FDFEFF"/>
      <stop offset="0.22" stop-color="#DCE4EE"/>
      <stop offset="0.52" stop-color="#8B98A9"/>
      <stop offset="0.78" stop-color="#435061"/>
      <stop offset="1" stop-color="#111827"/>
    </linearGradient>

    <linearGradient id="logoCut" x1="0" y1="0" x2="120" y2="120" gradientUnits="userSpaceOnUse">
      <stop stop-color="#08101B"/>
      <stop offset="1" stop-color="#1F2937"/>
    </linearGradient>

    <linearGradient id="logoEdge" x1="18" y1="18" x2="80" y2="44" gradientUnits="userSpaceOnUse">
      <stop stop-color="#FFFFFF" stop-opacity="0.42"/>
      <stop offset="1" stop-color="#FFFFFF" stop-opacity="0"/>
    </linearGradient>

    <linearGradient id="textGlow" x1="600" y1="140" x2="1120" y2="340" gradientUnits="userSpaceOnUse">
      <stop stop-color="#FFFFFF"/>
      <stop offset="1" stop-color="#CBD5E1"/>
    </linearGradient>

    <filter id="softShadow" x="0" y="0" width="1600" height="500" filterUnits="userSpaceOnUse" color-interpolation-filters="sRGB">
      <feDropShadow dx="0" dy="18" stdDeviation="24" flood-color="#000000" flood-opacity="0.45"/>
    </filter>
  </defs>

  <!-- Background -->
  <rect width="1600" height="500" rx="28" fill="url(#bg)"/>
  <rect width="1600" height="500" rx="28" fill="url(#glowLeft)"/>
  <rect width="1600" height="500" rx="28" fill="url(#glowRight)"/>

  <!-- Main panel -->
  <g filter="url(#softShadow)">
    <rect x="70" y="50" width="1460" height="400" rx="30" fill="#0F172A"/>
    <rect x="70.75" y="50.75" width="1458.5" height="398.5" rx="29.25" stroke="url(#panelStroke)" stroke-width="1.5"/>
  </g>

  <!-- Decorative horizontal rails -->
  <rect x="120" y="110" width="1360" height="2" fill="#FFFFFF" fill-opacity="0.06"/>
  <rect x="120" y="390" width="1360" height="2" fill="#FFFFFF" fill-opacity="0.05"/>

  <!-- Left logo container -->
  <rect x="160" y="120" width="260" height="260" rx="36" fill="#121B2B"/>
  <rect x="161" y="121" width="258" height="258" rx="35" stroke="#FFFFFF" stroke-opacity="0.07" stroke-width="2"/>

  <!-- H1 logo enlarged -->
  <g transform="translate(230 190) scale(1.5)">
    <rect x="18" y="18" width="84" height="84" rx="18" fill="url(#logoOuter)"/>
    <rect x="23" y="23" width="74" height="74" rx="14" stroke="url(#logoEdge)" stroke-width="1.4"/>
    <rect x="32" y="28" width="14" height="64" rx="6" fill="url(#logoCut)"/>
    <rect x="74" y="28" width="14" height="64" rx="6" fill="url(#logoCut)"/>
    <rect x="46" y="50" width="28" height="12" rx="5" fill="url(#logoCut)"/>
    <path d="M26 26H94" stroke="#FFFFFF" stroke-opacity="0.14" stroke-width="1"/>
    <path d="M26 26V94" stroke="#FFFFFF" stroke-opacity="0.10" stroke-width="1"/>
  </g>

  <!-- Wordmark -->
  <text x="500" y="210" fill="url(#textGlow)" font-family="Inter, Segoe UI, Arial, sans-serif" font-size="64" font-weight="800" letter-spacing="-1.5">
    Your Platform Name
  </text>

  <text x="500" y="270" fill="#CBD5E1" font-family="Inter, Segoe UI, Arial, sans-serif" font-size="24" font-weight="600">
    Governance-first analytics and enterprise AI systems
  </text>

  <text x="500" y="325" fill="#94A3B8" font-family="Inter, Segoe UI, Arial, sans-serif" font-size="18" font-weight="500">
    Trusted workflows • governed execution • premium enterprise delivery
  </text>

  <!-- Right-side subtle geometry -->
  <rect x="1260" y="145" width="110" height="110" rx="24" fill="#111827" stroke="#FFFFFF" stroke-opacity="0.06"/>
  <rect x="1300" y="175" width="30" height="50" rx="8" fill="#E5E7EB" fill-opacity="0.92"/>
  <rect x="1278" y="175" width="18" height="50" rx="7" fill="#64748B"/>
  <rect x="1334" y="175" width="18" height="50" rx="7" fill="#64748B"/>
  <rect x="1296" y="193" width="38" height="14" rx="6" fill="#0F172A"/>

  <rect x="1210" y="290" width="200" height="10" rx="5" fill="#FFFFFF" fill-opacity="0.06"/>
  <rect x="1240" y="320" width="140" height="10" rx="5" fill="#FFFFFF" fill-opacity="0.04"/>
</svg>
